<svg width="24" height="24" viewBox="0 0 24 24" fill="none" xmlns="http://www.w3.org/2000/svg">
<path d="M2 7H3H2ZM2 17H3H2ZM21 7H22H21ZM21 17H22H21ZM17 3V2V3ZM7 3V2V3ZM17 22V21V22ZM7 22V21V22ZM18 6.6V17.4C18 17.5591 17.9368 17.7117 17.8243 17.8243C17.7117 17.9368 17.5591 18 17.4 18H6.6C6.44087 18 6.28826 17.9368 6.17574 17.8243C6.06321 17.7117 6 17.5591 6 17.4V6.6C6 6.44087 6.06321 6.28826 6.17574 6.17574C6.28826 6.06321 6.44087 6 6.6 6H17.4C17.5591 6 17.7117 6.06321 17.8243 6.17574C17.9368 6.28826 18 6.44087 18 6.6V6.6Z" stroke="#A3520B" stroke-width="1.5" stroke-linecap="round" stroke-linejoin="round"/>
</svg>
