<svg width="48" height="49" viewBox="0 0 48 49" fill="none" xmlns="http://www.w3.org/2000/svg">
<path fill-rule="evenodd" clip-rule="evenodd" d="M14.93 2.632C17.276 2.524 18.024 2.5 24 2.5C29.976 2.5 30.724 2.526 33.068 2.632C35.412 2.738 37.012 3.112 38.412 3.654C39.878 4.208 41.208 5.074 42.308 6.194C43.428 7.292 44.292 8.62 44.844 10.088C45.388 11.488 45.76 13.088 45.868 15.428C45.976 17.778 46 18.526 46 24.5C46 30.476 45.974 31.224 45.868 33.57C45.762 35.91 45.388 37.51 44.844 38.91C44.292 40.3782 43.4266 41.7084 42.308 42.808C41.208 43.928 39.878 44.792 38.412 45.344C37.012 45.888 35.412 46.26 33.072 46.368C30.724 46.476 29.976 46.5 24 46.5C18.024 46.5 17.276 46.474 14.93 46.368C12.59 46.262 10.99 45.888 9.59 45.344C8.12184 44.7919 6.79164 43.9265 5.692 42.808C4.57276 41.7093 3.70663 40.3798 3.154 38.912C2.612 37.512 2.24 35.912 2.132 33.572C2.024 31.222 2 30.474 2 24.5C2 18.524 2.026 17.776 2.132 15.432C2.238 13.088 2.612 11.488 3.154 10.088C3.70745 8.62016 4.57424 7.29063 5.694 6.192C6.79208 5.073 8.12094 4.20689 9.588 3.654C10.988 3.112 12.588 2.74 14.928 2.632H14.93ZM32.89 6.592C30.57 6.486 29.874 6.464 24 6.464C18.126 6.464 17.43 6.486 15.11 6.592C12.964 6.69 11.8 7.048 11.024 7.35C9.998 7.75 9.264 8.224 8.494 8.994C7.76409 9.7041 7.20236 10.5686 6.85 11.524C6.548 12.3 6.19 13.464 6.092 15.61C5.986 17.93 5.964 18.626 5.964 24.5C5.964 30.374 5.986 31.07 6.092 33.39C6.19 35.536 6.548 36.7 6.85 37.476C7.202 38.43 7.764 39.296 8.494 40.006C9.204 40.736 10.07 41.298 11.024 41.65C11.8 41.952 12.964 42.31 15.11 42.408C17.43 42.514 18.124 42.536 24 42.536C29.876 42.536 30.57 42.514 32.89 42.408C35.036 42.31 36.2 41.952 36.976 41.65C38.002 41.25 38.736 40.776 39.506 40.006C40.236 39.296 40.798 38.43 41.15 37.476C41.452 36.7 41.81 35.536 41.908 33.39C42.014 31.07 42.036 30.374 42.036 24.5C42.036 18.626 42.014 17.93 41.908 15.61C41.81 13.464 41.452 12.3 41.15 11.524C40.75 10.498 40.276 9.764 39.506 8.994C38.7959 8.26414 37.9314 7.70242 36.976 7.35C36.2 7.048 35.036 6.69 32.89 6.592ZM21.19 31.282C22.7593 31.9353 24.5068 32.0234 26.1339 31.5314C27.761 31.0395 29.1668 29.9978 30.1112 28.5845C31.0557 27.1711 31.4801 25.4737 31.3121 23.7822C31.1441 22.0907 30.394 20.5099 29.19 19.31C28.4225 18.543 27.4944 17.9556 26.4727 17.5903C25.4509 17.225 24.3609 17.0907 23.281 17.1972C22.2011 17.3037 21.1583 17.6484 20.2276 18.2063C19.2969 18.7642 18.5015 19.5215 17.8986 20.4237C17.2957 21.3259 16.9004 22.3506 16.741 23.4239C16.5817 24.4973 16.6623 25.5926 16.9771 26.631C17.2919 27.6695 17.833 28.6252 18.5614 29.4294C19.2899 30.2337 20.1876 30.8664 21.19 31.282ZM16.004 16.504C17.054 15.4539 18.3006 14.621 19.6726 14.0527C21.0446 13.4844 22.515 13.1919 24 13.1919C25.485 13.1919 26.9554 13.4844 28.3274 14.0527C29.6994 14.621 30.946 15.4539 31.996 16.504C33.046 17.554 33.879 18.8006 34.4473 20.1726C35.0156 21.5446 35.3081 23.015 35.3081 24.5C35.3081 25.985 35.0156 27.4554 34.4473 28.8274C33.879 30.1994 33.046 31.446 31.996 32.496C29.8753 34.6167 26.9991 35.8081 24 35.8081C21.0009 35.8081 18.1247 34.6167 16.004 32.496C13.8833 30.3753 12.6919 27.4991 12.6919 24.5C12.6919 21.5009 13.8833 18.6247 16.004 16.504ZM37.816 14.876C38.0762 14.6305 38.2845 14.3354 38.4286 14.0079C38.5727 13.6805 38.6496 13.3275 38.6548 12.9699C38.66 12.6122 38.5934 12.2571 38.459 11.9256C38.3245 11.5941 38.1249 11.293 37.8719 11.0401C37.619 10.7871 37.3179 10.5875 36.9864 10.453C36.6549 10.3186 36.2998 10.252 35.9421 10.2572C35.5845 10.2624 35.2315 10.3393 34.9041 10.4834C34.5766 10.6275 34.2815 10.8358 34.036 11.096C33.5586 11.6021 33.2973 12.2742 33.3074 12.9699C33.3175 13.6655 33.5984 14.3298 34.0903 14.8217C34.5822 15.3136 35.2465 15.5945 35.9421 15.6046C36.6378 15.6147 37.3099 15.3534 37.816 14.876Z" fill="white"/>
</svg>
