<svg width="48" height="49" viewBox="0 0 48 49" fill="none" xmlns="http://www.w3.org/2000/svg">
<path fill-rule="evenodd" clip-rule="evenodd" d="M2 6.17601C2 5.20107 2.38729 4.26606 3.07668 3.57668C3.76606 2.8873 4.70106 2.5 5.676 2.5H42.32C42.8032 2.49922 43.2817 2.59373 43.7283 2.77814C44.1749 2.96255 44.5807 3.23322 44.9225 3.57468C45.2643 3.91613 45.5354 4.32165 45.7203 4.76802C45.9052 5.2144 46.0003 5.69286 46 6.17601V42.82C46.0005 43.3032 45.9058 43.7819 45.7211 44.2284C45.5365 44.675 45.2656 45.0808 44.924 45.4226C44.5824 45.7644 44.1768 46.0355 43.7303 46.2204C43.2838 46.4052 42.8052 46.5003 42.322 46.5H5.676C5.19309 46.5 4.71492 46.4049 4.26879 46.22C3.82267 46.0351 3.41734 45.7642 3.07597 45.4226C2.73459 45.0811 2.46386 44.6756 2.27925 44.2294C2.09463 43.7831 1.99974 43.3049 2 42.822V6.17601ZM19.416 19.276H25.374V22.268C26.234 20.548 28.434 19 31.74 19C38.078 19 39.58 22.426 39.58 28.712V40.356H33.166V30.144C33.166 26.564 32.306 24.544 30.122 24.544C27.092 24.544 25.832 26.722 25.832 30.144V40.356H19.416V19.276ZM8.416 40.082H14.832V19H8.416V40.08V40.082ZM15.75 12.124C15.7621 12.6734 15.6643 13.2196 15.4625 13.7306C15.2606 14.2417 14.9587 14.7073 14.5745 15.1001C14.1902 15.4929 13.7314 15.805 13.2249 16.018C12.7184 16.2311 12.1745 16.3408 11.625 16.3408C11.0755 16.3408 10.5316 16.2311 10.0251 16.018C9.5186 15.805 9.05978 15.4929 8.67554 15.1001C8.2913 14.7073 7.98939 14.2417 7.78752 13.7306C7.58566 13.2196 7.4879 12.6734 7.5 12.124C7.52375 11.0457 7.96877 10.0196 8.73977 9.26538C9.51077 8.51117 10.5464 8.08884 11.625 8.08884C12.7036 8.08884 13.7392 8.51117 14.5102 9.26538C15.2812 10.0196 15.7263 11.0457 15.75 12.124Z" fill="white"/>
</svg>
