<svg width="206" height="36" viewBox="0 0 206 36" fill="none" xmlns="http://www.w3.org/2000/svg">
<path d="M17.71 35.466C14.7047 35.466 12.0827 34.9753 9.844 33.994C7.60533 32.982 5.75 31.6327 4.278 29.946C2.83667 28.2593 1.76333 26.3887 1.058 24.334C0.352667 22.2793 0 20.2247 0 18.17V17.158C0 15.042 0.352667 12.972 1.058 10.948C1.76333 8.924 2.82133 7.084 4.232 5.428C5.67333 3.772 7.452 2.45333 9.568 1.472C11.7147 0.490668 14.1833 0 16.974 0C20.01 0 22.6933 0.567334 25.024 1.702C27.3547 2.806 29.2253 4.35467 30.636 6.348C32.0467 8.31067 32.8593 10.5953 33.074 13.202H25.53C25.346 11.9753 24.8553 10.902 24.058 9.982C23.2913 9.062 22.2947 8.34133 21.068 7.82C19.872 7.29867 18.5073 7.038 16.974 7.038C15.502 7.038 14.1833 7.29867 13.018 7.82C11.8833 8.34133 10.902 9.07734 10.074 10.028C9.27667 10.9787 8.66333 12.1133 8.234 13.432C7.83533 14.72 7.636 16.146 7.636 17.71C7.636 19.3353 7.85067 20.8227 8.28 22.172C8.74 23.4907 9.39933 24.6407 10.258 25.622C11.1167 26.5727 12.1747 27.3087 13.432 27.83C14.72 28.3513 16.146 28.612 17.71 28.612C19.7953 28.612 21.6047 28.1827 23.138 27.324C24.6713 26.4653 25.7753 25.3307 26.45 23.92L25.53 29.072V21.068H32.476V28.244C31.0347 30.5747 29.0413 32.3687 26.496 33.626C23.9813 34.8527 21.0527 35.466 17.71 35.466ZM16.744 22.54V17.112H35.236V22.54H16.744Z" fill="white"/>
<path d="M51.7964 35.466C48.7604 35.466 46.1997 34.9907 44.1144 34.04C42.029 33.0587 40.4497 31.74 39.3764 30.084C38.303 28.3973 37.7664 26.4653 37.7664 24.288H45.0804C45.0804 25.1467 45.3104 25.944 45.7704 26.68C46.261 27.416 46.997 28.014 47.9784 28.474C48.9597 28.9033 50.2324 29.118 51.7964 29.118C53.207 29.118 54.3877 28.934 55.3384 28.566C56.289 28.198 57.0097 27.692 57.5004 27.048C57.991 26.3733 58.2364 25.6067 58.2364 24.748C58.2364 23.6747 57.7764 22.8313 56.8564 22.218C55.9364 21.574 54.449 21.16 52.3944 20.976L49.8644 20.746C46.5217 20.47 43.8537 19.4273 41.8604 17.618C39.867 15.8087 38.8704 13.4167 38.8704 10.442C38.8704 8.29533 39.3764 6.44 40.3884 4.876C41.431 3.312 42.8724 2.116 44.7124 1.288C46.5524 0.429334 48.7297 0 51.2444 0C53.8817 0 56.1357 0.46 58.0064 1.38C59.9077 2.26933 61.3644 3.542 62.3764 5.198C63.3884 6.82333 63.8944 8.74 63.8944 10.948H56.5344C56.5344 10.12 56.335 9.36867 55.9364 8.694C55.5377 7.98867 54.9397 7.42133 54.1424 6.992C53.3757 6.56267 52.4097 6.348 51.2444 6.348C50.1404 6.348 49.205 6.532 48.4384 6.9C47.7024 7.268 47.1504 7.774 46.7824 8.418C46.4144 9.03133 46.2304 9.706 46.2304 10.442C46.2304 11.3927 46.5677 12.2207 47.2424 12.926C47.917 13.6313 49.021 14.0453 50.5544 14.168L53.1304 14.398C55.5837 14.6127 57.7457 15.1493 59.6164 16.008C61.487 16.836 62.9437 17.986 63.9864 19.458C65.0597 20.8993 65.5964 22.6627 65.5964 24.748C65.5964 26.8947 65.029 28.7807 63.8944 30.406C62.7904 32.0007 61.211 33.2427 59.1564 34.132C57.1017 35.0213 54.6484 35.466 51.7964 35.466Z" fill="white"/>
<path d="M76.4757 34.592V6.67H84.0197V34.592H76.4757ZM67.0457 7.59V1.012H93.4957V7.59H67.0457Z" fill="white"/>
<path d="M105.872 34.592L95.6599 1.012H103.434L111.53 29.348L109.782 28.474H114.474L112.634 29.348L120.132 1.012H127.676L118.154 34.592H105.872Z" fill="white"/>
<path d="M128.437 34.592V26.358H136.533V34.592H128.437Z" fill="white"/>
<path d="M155.577 35.466C152.418 35.466 149.735 34.8833 147.527 33.718C145.35 32.522 143.694 30.8353 142.559 28.658C141.424 26.4807 140.857 23.9047 140.857 20.93V1.012H148.401V21.206C148.401 22.678 148.677 23.966 149.229 25.07C149.812 26.1433 150.624 26.9713 151.667 27.554C152.74 28.1367 154.044 28.428 155.577 28.428C157.141 28.428 158.444 28.1367 159.487 27.554C160.56 26.9713 161.373 26.1433 161.925 25.07C162.477 23.9967 162.753 22.7087 162.753 21.206V1.012H170.297V20.93C170.297 23.9047 169.73 26.4807 168.595 28.658C167.46 30.8353 165.804 32.522 163.627 33.718C161.45 34.8833 158.766 35.466 155.577 35.466Z" fill="white"/>
<path d="M173.452 34.592L184.906 16.698L184.998 17.48L174.418 1.012H182.698L189.23 11.5H190.288L196.728 1.012H204.778L194.152 17.572L194.014 16.836L205.836 34.592H197.51L189.874 22.724H188.77L181.502 34.592H173.452Z" fill="white"/>
</svg>
